<svg xmlns="http://www.w3.org/2000/svg" xmlns:xlink="http://www.w3.org/1999/xlink" width="41.67mm" height="6.96mm" viewBox="0 0 118.11 19.73"><defs><linearGradient id="a" x1="0.88" y1="2.99" x2="18.69" y2="13.27" gradientUnits="userSpaceOnUse"><stop offset="0.21" stop-color="#f80759"/><stop offset="0.62" stop-color="#d92c7c"/><stop offset="1" stop-color="#bc4e9c"/></linearGradient></defs><title>Untitled-3</title><path d="M37.27,6.53a.58.58,0,0,1,.18.45.57.57,0,0,1-.18.44.69.69,0,0,1-.46.16H34.45V15a.62.62,0,0,1-.2.45.66.66,0,0,1-.48.18.69.69,0,0,1-.49-.18.65.65,0,0,1-.19-.45V7.58H30.74a.65.65,0,0,1-.46-.17A.58.58,0,0,1,30.1,7a.57.57,0,0,1,.18-.43.65.65,0,0,1,.46-.16h6.07A.65.65,0,0,1,37.27,6.53Z" transform="translate(-0.71 -1.27)"/><path d="M47.21,14.64a.6.6,0,0,1,.18.44.57.57,0,0,1-.18.43.65.65,0,0,1-.46.16H42.12a.63.63,0,0,1-.64-.63V7a.63.63,0,0,1,.64-.63h4.63a.61.61,0,0,1,.46.17.58.58,0,0,1,.18.45.55.55,0,0,1-.18.43.65.65,0,0,1-.46.17h-4V10.3h3.35a.65.65,0,0,1,.46.17.6.6,0,0,1,.18.44.54.54,0,0,1-.18.44.65.65,0,0,1-.46.16H42.8v2.94h4A.59.59,0,0,1,47.21,14.64Z" transform="translate(-0.71 -1.27)"/><path d="M58.76,15.1a.57.57,0,0,1-.18.44.57.57,0,0,1-.42.17.53.53,0,0,1-.34-.11.88.88,0,0,1-.25-.31l-.82-2H52.64l-.81,2a.55.55,0,0,1-.22.31.59.59,0,0,1-.34.1.51.51,0,0,1-.57-.54,1.26,1.26,0,0,1,0-.21l3.39-8.22a.78.78,0,0,1,.26-.33.54.54,0,0,1,.38-.08.6.6,0,0,1,.35.1.53.53,0,0,1,.23.31l3.38,8.11A.69.69,0,0,1,58.76,15.1Zm-5.61-3h3.09L54.69,8.4Z" transform="translate(-0.71 -1.27)"/><path d="M71.14,6.54a.62.62,0,0,1,.19.45v8a.62.62,0,0,1-.66.63.63.63,0,0,1-.47-.17A.6.6,0,0,1,70,15V8.88l-2.58,3.91a.74.74,0,0,1-.23.2.51.51,0,0,1-.29.06.45.45,0,0,1-.27-.06.74.74,0,0,1-.23-.2l-2.6-4V15a.66.66,0,0,1-.16.46.59.59,0,0,1-.45.17.54.54,0,0,1-.43-.17A.67.67,0,0,1,62.6,15V7a.61.61,0,0,1,.19-.45.64.64,0,0,1,.46-.19.76.76,0,0,1,.32.08.83.83,0,0,1,.24.21L67,11.42l3.2-4.78a.64.64,0,0,1,.53-.29A.71.71,0,0,1,71.14,6.54Z" transform="translate(-0.71 -1.27)"/><path d="M83,7.44a.66.66,0,0,1-.16.44.52.52,0,0,1-.44.21A.8.8,0,0,1,82,8a3.55,3.55,0,0,0-1.78-.46A3.5,3.5,0,0,0,78.49,8,3.13,3.13,0,0,0,77.3,9.2,3.74,3.74,0,0,0,76.87,11a3.89,3.89,0,0,0,.44,1.9,3,3,0,0,0,1.21,1.22,3.57,3.57,0,0,0,1.73.42A3.37,3.37,0,0,0,82,14.08a.82.82,0,0,1,.35-.08.53.53,0,0,1,.46.23.63.63,0,0,1,.16.42.61.61,0,0,1-.08.3.64.64,0,0,1-.24.22,4.84,4.84,0,0,1-1.16.46,4.69,4.69,0,0,1-1.27.18,5,5,0,0,1-2.37-.57,4.34,4.34,0,0,1-1.73-1.67A4.88,4.88,0,0,1,75.5,11a4.85,4.85,0,0,1,.62-2.43,4.48,4.48,0,0,1,1.7-1.7,5,5,0,0,1,4.85,0A.57.57,0,0,1,83,7.44Z" transform="translate(-0.71 -1.27)"/><path d="M94.9,13.45a4.45,4.45,0,0,1-1.6,1.73,4.37,4.37,0,0,1-2.32.63,4.31,4.31,0,0,1-2.31-.63,4.38,4.38,0,0,1-1.6-1.73A5,5,0,0,1,86.49,11a5,5,0,0,1,.58-2.43,4.45,4.45,0,0,1,1.6-1.73A4.31,4.31,0,0,1,91,6.23a4.37,4.37,0,0,1,2.32.63,4.52,4.52,0,0,1,1.6,1.73A5.13,5.13,0,0,1,95.48,11,5.13,5.13,0,0,1,94.9,13.45ZM93.71,9.22A3.2,3.2,0,0,0,92.6,8,3,3,0,0,0,91,7.5,2.94,2.94,0,0,0,89.37,8,3,3,0,0,0,88.26,9.2a4,4,0,0,0-.4,1.82,3.91,3.91,0,0,0,.4,1.8,3.05,3.05,0,0,0,1.11,1.27,2.94,2.94,0,0,0,1.61.45,3,3,0,0,0,1.62-.45,3.2,3.2,0,0,0,1.11-1.27,4.25,4.25,0,0,0,0-3.6Z" transform="translate(-0.71 -1.27)"/><path d="M105.7,7a3.86,3.86,0,0,1,1.35,1.68A6,6,0,0,1,107.5,11a6,6,0,0,1-.45,2.36,3.8,3.8,0,0,1-1.35,1.68,3.65,3.65,0,0,1-2.14.61h-3.27a.61.61,0,0,1-.45-.18.65.65,0,0,1-.19-.45V7a.65.65,0,0,1,.19-.45.61.61,0,0,1,.45-.18h3.27A3.58,3.58,0,0,1,105.7,7Zm-.23,6.5a4.23,4.23,0,0,0,.67-2.47,4.15,4.15,0,0,0-.68-2.46,2.32,2.32,0,0,0-2-1H101v6.86h2.46A2.35,2.35,0,0,0,105.47,13.49Z" transform="translate(-0.71 -1.27)"/><path d="M118.82,15.1a.57.57,0,0,1-.18.44.57.57,0,0,1-.42.17.53.53,0,0,1-.34-.11.88.88,0,0,1-.25-.31l-.82-2H112.7l-.81,2a.61.61,0,0,1-.22.31.59.59,0,0,1-.34.1.49.49,0,0,1-.57-.54,1.26,1.26,0,0,1,0-.21l3.39-8.22a.71.71,0,0,1,.26-.33.52.52,0,0,1,.37-.08.61.61,0,0,1,.36.1.53.53,0,0,1,.23.31l3.38,8.11A1,1,0,0,1,118.82,15.1Zm-5.61-3h3.09L114.75,8.4Z" transform="translate(-0.71 -1.27)"/><path d="M22.19,4.23c0-2.9-2.62-3-3.55-3H4.26c-.9,0-3.55,0-3.55,3s2.65,3,3.55,3H7.09A11.61,11.61,0,0,0,6.75,10v6.41c0,3.37,2.34,4.59,4.61,4.59,2.51,0,4.6-1.22,4.6-4.59V7.19H18.6C19.49,7.2,22.19,7.21,22.19,4.23Zm-17.93,1c-.44,0-1.53,0-1.53-1S3.9,3.3,4.26,3.3H9.82A7.36,7.36,0,0,0,8,5.21Zm14.39,0H16.06c-1.91,0-3.15.2-4.11,1A4.64,4.64,0,0,0,10.35,10v6.41a1,1,0,0,0,1.06,1,1,1,0,0,0,1-1c0-1,0-6.42,0-6.42a3.26,3.26,0,0,1,1.53-2.6v9A2.34,2.34,0,0,1,11.36,19a2.46,2.46,0,0,1-2.59-2.57V10a6.92,6.92,0,0,1,1.75-5A5.51,5.51,0,0,1,14,3.26c1.44,0,3,0,4.62,0,0,0,1.52,0,1.53,1S18.66,5.21,18.65,5.21Z" transform="translate(-0.71 -1.27)" fill="url(#a)"/></svg>